<svg aria-roledescription="er" viewBox="0 0 502.3252868652344 293" style="max-width: 502.325px; background-color: white;" xmlns:xlink="http://www.w3.org/1999/xlink" xmlns="http://www.w3.org/2000/svg" width="100%" id="mermaid-0"><style>#mermaid-0{font-family:"trebuchet ms",verdana,arial,sans-serif;font-size:16px;fill:#000000;}#mermaid-0 .error-icon{fill:#552222;}#mermaid-0 .error-text{fill:#552222;stroke:#552222;}#mermaid-0 .edge-thickness-normal{stroke-width:2px;}#mermaid-0 .edge-thickness-thick{stroke-width:3.5px;}#mermaid-0 .edge-pattern-solid{stroke-dasharray:0;}#mermaid-0 .edge-pattern-dashed{stroke-dasharray:3;}#mermaid-0 .edge-pattern-dotted{stroke-dasharray:2;}#mermaid-0 .marker{fill:#000000;stroke:#000000;}#mermaid-0 .marker.cross{stroke:#000000;}#mermaid-0 svg{font-family:"trebuchet ms",verdana,arial,sans-serif;font-size:16px;}#mermaid-0 .entityBox{fill:#cde498;stroke:#13540c;}#mermaid-0 .attributeBoxOdd{fill:#ffffff;stroke:#13540c;}#mermaid-0 .attributeBoxEven{fill:#f2f2f2;stroke:#13540c;}#mermaid-0 .relationshipLabelBox{fill:hsl(78.1578947368, 58.4615384615%, 84.5098039216%);opacity:0.7;background-color:hsl(78.1578947368, 58.4615384615%, 84.5098039216%);}#mermaid-0 .relationshipLabelBox rect{opacity:0.5;}#mermaid-0 .relationshipLine{stroke:#000000;}#mermaid-0 .entityTitleText{text-anchor:middle;font-size:18px;fill:#000000;}#mermaid-0 :root{--mermaid-font-family:"trebuchet ms",verdana,arial,sans-serif;}</style><g/><defs><marker orient="auto" markerHeight="18" markerWidth="18" refY="9" refX="0" id="ONLY_ONE_START"><path d="M9,0 L9,18 M15,0 L15,18" fill="none" stroke="gray"/></marker></defs><defs><marker orient="auto" markerHeight="18" markerWidth="18" refY="9" refX="18" id="ONLY_ONE_END"><path d="M3,0 L3,18 M9,0 L9,18" fill="none" stroke="gray"/></marker></defs><defs><marker orient="auto" markerHeight="18" markerWidth="30" refY="9" refX="0" id="ZERO_OR_ONE_START"><circle r="6" cy="9" cx="21" fill="white" stroke="gray"/><path d="M9,0 L9,18" fill="none" stroke="gray"/></marker></defs><defs><marker orient="auto" markerHeight="18" markerWidth="30" refY="9" refX="30" id="ZERO_OR_ONE_END"><circle r="6" cy="9" cx="9" fill="white" stroke="gray"/><path d="M21,0 L21,18" fill="none" stroke="gray"/></marker></defs><defs><marker orient="auto" markerHeight="36" markerWidth="45" refY="18" refX="18" id="ONE_OR_MORE_START"><path d="M0,18 Q 18,0 36,18 Q 18,36 0,18 M42,9 L42,27" fill="none" stroke="gray"/></marker></defs><defs><marker orient="auto" markerHeight="36" markerWidth="45" refY="18" refX="27" id="ONE_OR_MORE_END"><path d="M3,9 L3,27 M9,18 Q27,0 45,18 Q27,36 9,18" fill="none" stroke="gray"/></marker></defs><defs><marker orient="auto" markerHeight="36" markerWidth="57" refY="18" refX="18" id="ZERO_OR_MORE_START"><circle r="6" cy="18" cx="48" fill="white" stroke="gray"/><path d="M0,18 Q18,0 36,18 Q18,36 0,18" fill="none" stroke="gray"/></marker></defs><defs><marker orient="auto" markerHeight="36" markerWidth="57" refY="18" refX="39" id="ZERO_OR_MORE_END"><circle r="6" cy="18" cx="9" fill="white" stroke="gray"/><path d="M21,18 Q39,0 57,18 Q39,36 21,18" fill="none" stroke="gray"/></marker></defs><path style="stroke: gray; fill: none;" marker-start="url(#ZERO_OR_MORE_START)" marker-end="url(#ONLY_ONE_END)" d="M81.3671875,86L81.3671875,94.33333333333333C81.3671875,102.66666666666667,81.3671875,119.33333333333333,85.82351548573975,136C90.27984347147951,152.66666666666666,99.192499442959,169.33333333333334,103.64882742869877,177.66666666666666L108.1051554144385,186" class="er relationshipLine"/><path style="stroke: gray; fill: none;" marker-start="url(#ZERO_OR_MORE_START)" marker-end="url(#ONLY_ONE_END)" d="M384.0950026914298,86L389.1150830127149,94.33333333333333C394.135163334,102.66666666666667,404.1753239765703,119.33333333333333,409.1954042978555,136C414.2154846191406,152.66666666666666,414.2154846191406,169.33333333333334,414.2154846191406,177.66666666666666L414.2154846191406,186" class="er relationshipLine"/><path style="stroke: gray; fill: none;" marker-start="url(#ZERO_OR_MORE_START)" marker-end="url(#ONLY_ONE_END)" d="M317.25616565382626,86L305.39775177369637,94.33333333333333C293.5393378935665,102.66666666666667,269.82251013330665,119.33333333333333,247.73784893828847,136C225.65318774327025,152.66666666666666,205.20069311349366,169.33333333333334,194.9744457986053,177.66666666666666L184.748198483717,186" class="er relationshipLine"/><g transform="translate(63.25738525390625,186 )" id="entity-habits-092c7b11-98a8-4de9-bdef-67a6760a2858"><rect height="87" width="136.2196044921875" y="0" x="0" class="er entityBox"/><text style="dominant-baseline: middle; text-anchor: middle; font-size: 12px;" transform="translate(68.10980224609375,12)" y="0" x="0" id="text-entity-habits-092c7b11-98a8-4de9-bdef-67a6760a2858" class="er entityLabel">habits</text><rect height="21" width="54.113128662109375" y="24" x="0" class="er attributeBoxOdd"/><text style="dominant-baseline: middle; font-size: 10.2px;" transform="translate(5,34.5)" y="0" x="0" id="text-entity-habits-092c7b11-98a8-4de9-bdef-67a6760a2858-attr-1-type" class="er entityLabel">String</text><rect height="21" width="58.311492919921875" y="24" x="54.113128662109375" class="er attributeBoxOdd"/><text style="dominant-baseline: middle; font-size: 10.2px;" transform="translate(59.113128662109375,34.5)" y="0" x="0" id="text-entity-habits-092c7b11-98a8-4de9-bdef-67a6760a2858-attr-1-name" class="er entityLabel">id</text><rect height="21" width="23.79498291015625" y="24" x="112.42462158203125" class="er attributeBoxOdd"/><text style="dominant-baseline: middle; font-size: 10.2px;" transform="translate(117.42462158203125,34.5)" y="0" x="0" id="text-entity-habits-092c7b11-98a8-4de9-bdef-67a6760a2858-attr-1-key" class="er entityLabel">PK</text><rect height="21" width="54.113128662109375" y="45" x="0" class="er attributeBoxEven"/><text style="dominant-baseline: middle; font-size: 10.2px;" transform="translate(5,55.5)" y="0" x="0" id="text-entity-habits-092c7b11-98a8-4de9-bdef-67a6760a2858-attr-2-type" class="er entityLabel">String</text><rect height="21" width="58.311492919921875" y="45" x="54.113128662109375" class="er attributeBoxEven"/><text style="dominant-baseline: middle; font-size: 10.2px;" transform="translate(59.113128662109375,55.5)" y="0" x="0" id="text-entity-habits-092c7b11-98a8-4de9-bdef-67a6760a2858-attr-2-name" class="er entityLabel">title</text><rect height="21" width="23.79498291015625" y="45" x="112.42462158203125" class="er attributeBoxEven"/><text style="dominant-baseline: middle; font-size: 10.2px;" transform="translate(117.42462158203125,55.5)" y="0" x="0" id="text-entity-habits-092c7b11-98a8-4de9-bdef-67a6760a2858-attr-2-key" class="er entityLabel"/><rect height="21" width="54.113128662109375" y="66" x="0" class="er attributeBoxOdd"/><text style="dominant-baseline: middle; font-size: 10.2px;" transform="translate(5,76.5)" y="0" x="0" id="text-entity-habits-092c7b11-98a8-4de9-bdef-67a6760a2858-attr-3-type" class="er entityLabel">DateTime</text><rect height="21" width="58.311492919921875" y="66" x="54.113128662109375" class="er attributeBoxOdd"/><text style="dominant-baseline: middle; font-size: 10.2px;" transform="translate(59.113128662109375,76.5)" y="0" x="0" id="text-entity-habits-092c7b11-98a8-4de9-bdef-67a6760a2858-attr-3-name" class="er entityLabel">created_at</text><rect height="21" width="23.79498291015625" y="66" x="112.42462158203125" class="er attributeBoxOdd"/><text style="dominant-baseline: middle; font-size: 10.2px;" transform="translate(117.42462158203125,76.5)" y="0" x="0" id="text-entity-habits-092c7b11-98a8-4de9-bdef-67a6760a2858-attr-3-key" class="er entityLabel"/></g><g transform="translate(20,20 )" id="entity-habitweekdays-a7c2469f-a80d-440d-86cc-8f0983c91adb"><rect height="66" width="122.734375" y="0" x="0" class="er entityBox"/><text style="dominant-baseline: middle; text-anchor: middle; font-size: 12px;" transform="translate(61.3671875,12)" y="0" x="0" id="text-entity-habitweekdays-a7c2469f-a80d-440d-86cc-8f0983c91adb" class="er entityLabel">habit_week_days</text><rect height="21" width="38.351216634114586" y="24" x="0" class="er attributeBoxOdd"/><text style="dominant-baseline: middle; font-size: 10.2px;" transform="translate(5,34.5)" y="0" x="0" id="text-entity-habitweekdays-a7c2469f-a80d-440d-86cc-8f0983c91adb-attr-1-type" class="er entityLabel">String</text><rect height="21" width="59.18401082356771" y="24" x="38.351216634114586" class="er attributeBoxOdd"/><text style="dominant-baseline: middle; font-size: 10.2px;" transform="translate(43.351216634114586,34.5)" y="0" x="0" id="text-entity-habitweekdays-a7c2469f-a80d-440d-86cc-8f0983c91adb-attr-1-name" class="er entityLabel">id</text><rect height="21" width="25.199147542317707" y="24" x="97.5352274576823" class="er attributeBoxOdd"/><text style="dominant-baseline: middle; font-size: 10.2px;" transform="translate(102.5352274576823,34.5)" y="0" x="0" id="text-entity-habitweekdays-a7c2469f-a80d-440d-86cc-8f0983c91adb-attr-1-key" class="er entityLabel">PK</text><rect height="21" width="38.351216634114586" y="45" x="0" class="er attributeBoxEven"/><text style="dominant-baseline: middle; font-size: 10.2px;" transform="translate(5,55.5)" y="0" x="0" id="text-entity-habitweekdays-a7c2469f-a80d-440d-86cc-8f0983c91adb-attr-2-type" class="er entityLabel">Int</text><rect height="21" width="59.18401082356771" y="45" x="38.351216634114586" class="er attributeBoxEven"/><text style="dominant-baseline: middle; font-size: 10.2px;" transform="translate(43.351216634114586,55.5)" y="0" x="0" id="text-entity-habitweekdays-a7c2469f-a80d-440d-86cc-8f0983c91adb-attr-2-name" class="er entityLabel">week_day</text><rect height="21" width="25.199147542317707" y="45" x="97.5352274576823" class="er attributeBoxEven"/><text style="dominant-baseline: middle; font-size: 10.2px;" transform="translate(102.5352274576823,55.5)" y="0" x="0" id="text-entity-habitweekdays-a7c2469f-a80d-440d-86cc-8f0983c91adb-attr-2-key" class="er entityLabel"/></g><g transform="translate(346.1056823730469,186 )" id="entity-days-0de19028-b043-465d-93e5-11d9e2cfa1c6"><rect height="87" width="136.2196044921875" y="0" x="0" class="er entityBox"/><text style="dominant-baseline: middle; text-anchor: middle; font-size: 12px;" transform="translate(68.10980224609375,12)" y="0" x="0" id="text-entity-days-0de19028-b043-465d-93e5-11d9e2cfa1c6" class="er entityLabel">days</text><rect height="21" width="54.113128662109375" y="24" x="0" class="er attributeBoxOdd"/><text style="dominant-baseline: middle; font-size: 10.2px;" transform="translate(5,34.5)" y="0" x="0" id="text-entity-days-0de19028-b043-465d-93e5-11d9e2cfa1c6-attr-1-type" class="er entityLabel">String</text><rect height="21" width="58.311492919921875" y="24" x="54.113128662109375" class="er attributeBoxOdd"/><text style="dominant-baseline: middle; font-size: 10.2px;" transform="translate(59.113128662109375,34.5)" y="0" x="0" id="text-entity-days-0de19028-b043-465d-93e5-11d9e2cfa1c6-attr-1-name" class="er entityLabel">id</text><rect height="21" width="23.79498291015625" y="24" x="112.42462158203125" class="er attributeBoxOdd"/><text style="dominant-baseline: middle; font-size: 10.2px;" transform="translate(117.42462158203125,34.5)" y="0" x="0" id="text-entity-days-0de19028-b043-465d-93e5-11d9e2cfa1c6-attr-1-key" class="er entityLabel">PK</text><rect height="21" width="54.113128662109375" y="45" x="0" class="er attributeBoxEven"/><text style="dominant-baseline: middle; font-size: 10.2px;" transform="translate(5,55.5)" y="0" x="0" id="text-entity-days-0de19028-b043-465d-93e5-11d9e2cfa1c6-attr-2-type" class="er entityLabel">DateTime</text><rect height="21" width="58.311492919921875" y="45" x="54.113128662109375" class="er attributeBoxEven"/><text style="dominant-baseline: middle; font-size: 10.2px;" transform="translate(59.113128662109375,55.5)" y="0" x="0" id="text-entity-days-0de19028-b043-465d-93e5-11d9e2cfa1c6-attr-2-name" class="er entityLabel">date</text><rect height="21" width="23.79498291015625" y="45" x="112.42462158203125" class="er attributeBoxEven"/><text style="dominant-baseline: middle; font-size: 10.2px;" transform="translate(117.42462158203125,55.5)" y="0" x="0" id="text-entity-days-0de19028-b043-465d-93e5-11d9e2cfa1c6-attr-2-key" class="er entityLabel"/><rect height="21" width="54.113128662109375" y="66" x="0" class="er attributeBoxOdd"/><text style="dominant-baseline: middle; font-size: 10.2px;" transform="translate(5,76.5)" y="0" x="0" id="text-entity-days-0de19028-b043-465d-93e5-11d9e2cfa1c6-attr-3-type" class="er entityLabel">DateTime</text><rect height="21" width="58.311492919921875" y="66" x="54.113128662109375" class="er attributeBoxOdd"/><text style="dominant-baseline: middle; font-size: 10.2px;" transform="translate(59.113128662109375,76.5)" y="0" x="0" id="text-entity-days-0de19028-b043-465d-93e5-11d9e2cfa1c6-attr-3-name" class="er entityLabel">created_at</text><rect height="21" width="23.79498291015625" y="66" x="112.42462158203125" class="er attributeBoxOdd"/><text style="dominant-baseline: middle; font-size: 10.2px;" transform="translate(117.42462158203125,76.5)" y="0" x="0" id="text-entity-days-0de19028-b043-465d-93e5-11d9e2cfa1c6-attr-3-key" class="er entityLabel"/></g><g transform="translate(296.1056823730469,20 )" id="entity-dayhabits-152c3c17-3e04-44da-a0a9-e26b9824389e"><rect height="66" width="136.2196044921875" y="0" x="0" class="er entityBox"/><text style="dominant-baseline: middle; text-anchor: middle; font-size: 12px;" transform="translate(68.10980224609375,12)" y="0" x="0" id="text-entity-dayhabits-152c3c17-3e04-44da-a0a9-e26b9824389e" class="er entityLabel">day_habits</text><rect height="21" width="54.113128662109375" y="24" x="0" class="er attributeBoxOdd"/><text style="dominant-baseline: middle; font-size: 10.2px;" transform="translate(5,34.5)" y="0" x="0" id="text-entity-dayhabits-152c3c17-3e04-44da-a0a9-e26b9824389e-attr-1-type" class="er entityLabel">String</text><rect height="21" width="58.311492919921875" y="24" x="54.113128662109375" class="er attributeBoxOdd"/><text style="dominant-baseline: middle; font-size: 10.2px;" transform="translate(59.113128662109375,34.5)" y="0" x="0" id="text-entity-dayhabits-152c3c17-3e04-44da-a0a9-e26b9824389e-attr-1-name" class="er entityLabel">id</text><rect height="21" width="23.79498291015625" y="24" x="112.42462158203125" class="er attributeBoxOdd"/><text style="dominant-baseline: middle; font-size: 10.2px;" transform="translate(117.42462158203125,34.5)" y="0" x="0" id="text-entity-dayhabits-152c3c17-3e04-44da-a0a9-e26b9824389e-attr-1-key" class="er entityLabel">PK</text><rect height="21" width="54.113128662109375" y="45" x="0" class="er attributeBoxEven"/><text style="dominant-baseline: middle; font-size: 10.2px;" transform="translate(5,55.5)" y="0" x="0" id="text-entity-dayhabits-152c3c17-3e04-44da-a0a9-e26b9824389e-attr-2-type" class="er entityLabel">DateTime</text><rect height="21" width="58.311492919921875" y="45" x="54.113128662109375" class="er attributeBoxEven"/><text style="dominant-baseline: middle; font-size: 10.2px;" transform="translate(59.113128662109375,55.5)" y="0" x="0" id="text-entity-dayhabits-152c3c17-3e04-44da-a0a9-e26b9824389e-attr-2-name" class="er entityLabel">created_at</text><rect height="21" width="23.79498291015625" y="45" x="112.42462158203125" class="er attributeBoxEven"/><text style="dominant-baseline: middle; font-size: 10.2px;" transform="translate(117.42462158203125,55.5)" y="0" x="0" id="text-entity-dayhabits-152c3c17-3e04-44da-a0a9-e26b9824389e-attr-2-key" class="er entityLabel"/></g><rect height="14" width="26.6875" y="131.1707000732422" x="73.08501434326172" class="er relationshipLabelBox"/><text style="text-anchor: middle; dominant-baseline: middle; font-size: 12px;" y="138.1707000732422" x="86.42876434326172" id="rel1" class="er relationshipLabel">habit</text><rect height="14" width="19.359375" y="126.31080627441406" x="398.6632080078125" class="er relationshipLabelBox"/><text style="text-anchor: middle; dominant-baseline: middle; font-size: 12px;" y="133.31080627441406" x="408.3428955078125" id="rel2" class="er relationshipLabel">day</text><rect height="14" width="26.6875" y="127.43341064453125" x="236.47471618652344" class="er relationshipLabelBox"/><text style="text-anchor: middle; dominant-baseline: middle; font-size: 12px;" y="134.43341064453125" x="249.81846618652344" id="rel3" class="er relationshipLabel">habit</text></svg>